<svg width="32" height="28" viewBox="0 0 32 28" fill="none" xmlns="http://www.w3.org/2000/svg">
<path d="M9.6875 7.125C13.8538 7.125 18.02 7.125 22.3125 7.125C22.1719 7.82803 22.1719 7.82803 22.0669 8.15335C22.0434 8.22689 22.0199 8.30044 21.9956 8.37621C21.9701 8.4546 21.9447 8.533 21.9185 8.61377C21.8912 8.69851 21.864 8.78325 21.8369 8.86801C21.7788 9.04911 21.7205 9.23015 21.662 9.41113C21.5206 9.84898 21.3803 10.2872 21.24 10.7254C21.2078 10.8258 21.1756 10.9262 21.1434 11.0266C20.8326 11.9965 20.5279 12.9682 20.2254 13.9406C19.7812 15.3686 19.3305 16.7944 18.875 18.2188C18.3822 19.7596 17.8959 21.3024 17.4146 22.8469C16.9697 24.2748 16.5184 25.7006 16.0625 27.125C16.0212 27.125 15.98 27.125 15.9375 27.125C15.7446 26.5209 15.5519 25.9167 15.3594 25.3125C15.3447 25.2663 15.3299 25.2201 15.3148 25.1725C14.8734 23.7869 14.4363 22.4001 14.0039 21.0117C13.5707 19.6206 13.1313 18.2315 12.6875 16.8438C12.1863 15.2764 11.6912 13.7072 11.202 12.1361C11.1515 11.974 11.101 11.812 11.0505 11.6499C11.0382 11.6102 11.0258 11.5705 11.0131 11.5296C10.835 10.958 10.6554 10.387 10.4746 9.81635C10.4363 9.69536 10.398 9.57437 10.3597 9.45337C10.2406 9.07726 10.1214 8.70123 10.0016 8.32533C9.95973 8.19305 9.91785 8.06076 9.87598 7.92847C9.85671 7.86832 9.83744 7.80818 9.81759 7.74622C9.8003 7.69141 9.78301 7.6366 9.7652 7.58012C9.75009 7.53265 9.73499 7.48517 9.71943 7.43626C9.6875 7.3125 9.6875 7.3125 9.6875 7.125Z" fill="white"/>
<path d="M23.4999 7.125C26.3049 7.125 29.1099 7.125 31.9999 7.125C31.8906 7.39819 31.817 7.52393 31.6327 7.73828C31.3925 8.02472 31.1644 8.31727 30.9413 8.61719C30.6381 9.02418 30.3308 9.42758 30.0207 9.82932C29.8648 10.0317 29.7097 10.2346 29.5546 10.4375C29.5208 10.4816 29.4871 10.5258 29.4523 10.5713C29.1332 10.9889 28.8147 11.407 28.4963 11.8251C28.2049 12.2076 27.913 12.5898 27.6207 12.9717C27.3508 13.3245 27.0815 13.6778 26.8124 14.0312C26.4782 14.4701 26.1435 14.9086 25.8082 15.3467C25.5383 15.6995 25.269 16.0528 24.9999 16.4062C24.6657 16.8451 24.331 17.2836 23.9957 17.7217C23.7258 18.0745 23.4565 18.4278 23.1874 18.7812C22.8532 19.2201 22.5185 19.6586 22.1832 20.0967C21.9133 20.4495 21.644 20.8028 21.3749 21.1562C21.0407 21.5951 20.706 22.0336 20.3707 22.4717C20.1008 22.8245 19.8315 23.1778 19.5624 23.5312C18.9186 24.3766 18.2734 25.2208 17.6249 26.0625C17.549 25.8349 17.583 25.7637 17.6559 25.5385C17.6782 25.4687 17.7005 25.3989 17.7235 25.3269C17.7611 25.2121 17.7611 25.2121 17.7994 25.095C17.8256 25.0138 17.8516 24.9327 17.8776 24.8515C17.9338 24.6766 17.9903 24.5018 18.047 24.327C18.1377 24.0475 18.2277 23.7678 18.3175 23.488C18.3327 23.4408 18.3478 23.3935 18.3635 23.3449C18.3943 23.2487 18.4252 23.1525 18.4561 23.0562C18.5032 22.9095 18.5503 22.7629 18.5975 22.6162C18.8767 21.7475 19.1493 20.8769 19.4202 20.0056C19.878 18.533 20.3427 17.0626 20.8124 15.5938C21.2691 14.1656 21.7214 12.7361 22.1679 11.3047C22.1875 11.2417 22.1875 11.2417 22.2075 11.1775C22.3441 10.7396 22.4806 10.3016 22.6171 9.86365C22.7855 9.32308 22.9543 8.78263 23.1237 8.24237C23.1663 8.10659 23.2087 7.97076 23.2512 7.83493C23.2876 7.71869 23.2876 7.71869 23.3248 7.6001C23.3454 7.53457 23.3659 7.46904 23.387 7.40152C23.4374 7.25 23.4374 7.25 23.4999 7.125Z" fill="white"/>
<path d="M0 7.125C2.805 7.125 5.61 7.125 8.5 7.125C8.9023 8.37213 9.30408 9.61937 9.70145 10.8681C9.74326 10.9994 9.78508 11.1308 9.82691 11.2622C10.2548 12.6065 10.6775 13.9523 11.097 15.2992C11.5034 16.6039 11.9155 17.9066 12.3317 19.2082C12.7996 20.6717 13.2648 22.136 13.7242 23.6022C13.7652 23.7331 13.8064 23.864 13.8476 23.9949C13.9237 24.2371 13.9995 24.4794 14.0752 24.7217C14.1087 24.828 14.1087 24.828 14.1429 24.9365C14.259 25.3096 14.359 25.6797 14.4375 26.0625C14.162 25.802 13.9337 25.5153 13.7031 25.2148C13.6643 25.1646 13.6255 25.1143 13.5855 25.0625C13.3315 24.733 13.0806 24.4014 12.832 24.0679C12.6591 23.837 12.484 23.6079 12.3086 23.3789C11.9968 22.9718 11.6856 22.5642 11.375 22.1562C11.0733 21.7601 10.7714 21.3642 10.4688 20.9688C10.1231 20.5171 9.77841 20.0648 9.43384 19.6123C9.17501 19.2725 8.91584 18.933 8.65625 18.5938C8.31062 18.1421 7.96591 17.6898 7.62134 17.2373C7.36251 16.8975 7.10334 16.558 6.84375 16.2188C6.49812 15.7671 6.15341 15.3148 5.80884 14.8623C5.55001 14.5225 5.29084 14.183 5.03125 13.8438C4.68562 13.3921 4.34091 12.9398 3.99634 12.4873C3.73751 12.1475 3.47834 11.808 3.21875 11.4688C2.87312 11.0171 2.52841 10.5648 2.18384 10.1123C1.95749 9.81514 1.73096 9.51811 1.50395 9.22145C1.43931 9.13696 1.3747 9.05243 1.31013 8.96788C1.11657 8.71444 0.922203 8.46164 0.727295 8.20923C0.634599 8.08871 0.541907 7.96818 0.449219 7.84766C0.404666 7.79021 0.360112 7.73277 0.314209 7.67358C0.273281 7.62025 0.232354 7.56691 0.190186 7.51196C0.153462 7.46439 0.116739 7.41682 0.0789032 7.36781C0 7.25 0 7.25 0 7.125Z" fill="white"/>
<path d="M15.9375 0.25C16.1376 0.338296 16.272 0.443791 16.4264 0.597992C16.473 0.644261 16.5196 0.69053 16.5676 0.738201C16.6434 0.814376 16.6434 0.814376 16.7208 0.89209C16.8013 0.972283 16.8013 0.972283 16.8834 1.0541C17.0303 1.20055 17.177 1.34729 17.3235 1.49417C17.4768 1.64778 17.6304 1.80108 17.7839 1.95444C18.0416 2.21187 18.299 2.46957 18.5562 2.72742C18.8539 3.0258 19.1521 3.32374 19.4505 3.62144C19.7065 3.87694 19.9624 4.13269 20.218 4.38864C20.3707 4.54157 20.5235 4.69441 20.6766 4.84703C20.8469 5.01697 21.0168 5.18741 21.1866 5.35791C21.2376 5.40869 21.2887 5.45948 21.3412 5.5118C21.3872 5.55807 21.4331 5.60434 21.4804 5.65201C21.5206 5.69229 21.5608 5.73257 21.6023 5.77407C21.6875 5.875 21.6875 5.875 21.6875 6C17.9338 6 14.18 6 10.3125 6C10.4217 5.78163 10.4946 5.67744 10.6613 5.51114C10.7078 5.46451 10.7542 5.41789 10.8021 5.36986C10.8531 5.31933 10.904 5.2688 10.9566 5.21674C11.0371 5.13621 11.0371 5.13621 11.1192 5.05407C11.2662 4.90716 11.4134 4.76054 11.5608 4.61404C11.7148 4.46078 11.8685 4.30717 12.0222 4.1536C12.3133 3.86294 12.6046 3.57261 12.8961 3.28239C13.228 2.95193 13.5595 2.6211 13.891 2.29025C14.5727 1.60977 15.255 0.929739 15.9375 0.25Z" fill="white"/>
<path d="M17.375 0C20.3038 0 23.2325 0 26.25 0C26.1637 0.21579 26.0828 0.398843 25.9702 0.598145C25.9391 0.653277 25.908 0.70841 25.876 0.765213C25.8422 0.824646 25.8083 0.884079 25.7734 0.945312C25.7377 1.00825 25.702 1.07119 25.6653 1.13603C25.3482 1.69248 25.0221 2.24346 24.6942 2.79358C24.4782 3.15634 24.2639 3.51986 24.0537 3.88599C24.0221 3.94096 24.0221 3.94096 23.9899 3.99704C23.8898 4.17154 23.79 4.34621 23.6905 4.52107C23.474 4.89939 23.2465 5.26553 23 5.625C22.6618 5.34277 22.3476 5.044 22.0366 4.73222C21.9606 4.6564 21.9606 4.6564 21.8831 4.57904C21.7169 4.41312 21.551 4.24697 21.385 4.08081C21.2693 3.96518 21.1537 3.84956 21.038 3.73395C20.7963 3.49235 20.5547 3.25061 20.3132 3.0088C20.0337 2.72899 19.754 2.44941 19.4742 2.16994C19.2047 1.90077 18.9354 1.63144 18.6662 1.36202C18.5516 1.24742 18.437 1.13286 18.3223 1.01835C18.1628 0.858997 18.0035 0.699447 17.8443 0.539841C17.7964 0.492148 17.7486 0.444454 17.6993 0.395316C17.6348 0.330528 17.6348 0.330528 17.569 0.26443C17.5313 0.22672 17.4936 0.189011 17.4548 0.150158C17.375 0.0625 17.375 0.0625 17.375 0Z" fill="white"/>
<path d="M5.75 0C8.67875 0 11.6075 0 14.625 0C14.2031 0.492188 14.2031 0.492188 14.008 0.687049C13.9638 0.731299 13.9196 0.775549 13.8741 0.821139C13.827 0.868073 13.7798 0.915007 13.7312 0.963364C13.6806 1.01402 13.6299 1.06468 13.5777 1.11688C13.4115 1.28307 13.2451 1.44903 13.0786 1.61499C12.9628 1.73066 12.8471 1.84634 12.7313 1.96203C12.4585 2.23462 12.1856 2.50706 11.9126 2.77943C11.6015 3.08977 11.2907 3.40029 10.9798 3.71082C10.3409 4.34908 9.70178 4.98711 9.0625 5.625C8.87747 5.44505 8.74524 5.27973 8.61816 5.05444C8.56366 4.95873 8.56366 4.95873 8.50806 4.86108C8.4693 4.7922 8.43055 4.72332 8.39062 4.65234C8.30652 4.50436 8.22211 4.35655 8.1377 4.20874C8.11606 4.17077 8.09442 4.13279 8.07212 4.09367C7.84454 3.69501 7.61003 3.30055 7.375 2.90625C6.91903 2.14007 6.47237 1.36887 6.02898 0.595367C5.96522 0.485334 5.89938 0.376493 5.83199 0.268646C5.75 0.125 5.75 0.125 5.75 0Z" fill="white"/>
<path d="M27.3125 0.4375C27.5447 0.514909 27.5997 0.605636 27.75 0.796875C27.7996 0.859072 27.8493 0.92127 27.9004 0.985352C27.9267 1.01842 27.9531 1.0515 27.9802 1.08557C28.1191 1.25762 28.2628 1.42552 28.4062 1.59375C28.6639 1.8968 28.9169 2.20323 29.168 2.51172C29.3288 2.70737 29.4922 2.90073 29.6562 3.09375C29.9138 3.39685 30.1669 3.70323 30.418 4.01172C30.5788 4.20738 30.7423 4.4007 30.9062 4.59375C30.9927 4.69585 31.0791 4.79798 31.1655 4.90015C31.2213 4.96614 31.2773 5.03205 31.3333 5.0979C31.4114 5.18993 31.4889 5.28245 31.5664 5.375C31.611 5.42785 31.6555 5.4807 31.7014 5.53516C31.8125 5.6875 31.8125 5.6875 31.9375 6C29.3594 6 26.7812 6 24.125 6C24.2197 5.71593 24.298 5.52473 24.448 5.27637C24.4879 5.2098 24.5278 5.14324 24.5689 5.07466C24.5901 5.03963 24.6113 5.0046 24.6332 4.96852C24.7472 4.78017 24.8599 4.59108 24.9729 4.4021C24.9961 4.36335 25.0193 4.3246 25.0432 4.28467C25.2752 3.89665 25.5014 3.50531 25.7266 3.11328C25.8033 2.97989 25.88 2.84651 25.9568 2.71313C25.9946 2.64748 26.0323 2.58183 26.0713 2.51419C26.2694 2.17045 26.4685 1.8273 26.668 1.48438C26.722 1.39118 26.722 1.39118 26.7771 1.2961C26.9475 1.00364 27.1203 0.716161 27.3125 0.4375Z" fill="white"/>
<path d="M4.5625 0.4375C4.79979 0.516596 4.818 0.587575 4.93823 0.802246C4.97477 0.866659 5.01131 0.931072 5.04895 0.997437C5.08823 1.06789 5.1275 1.13835 5.16797 1.21094C5.2526 1.36066 5.33763 1.51014 5.42261 1.65967C5.45536 1.7175 5.45536 1.7175 5.48877 1.77649C5.71608 2.17727 5.95145 2.57306 6.1875 2.96875C6.64291 3.73408 7.09023 4.50379 7.53259 5.27673C7.59007 5.37674 7.64802 5.47648 7.70667 5.57581C7.875 5.86206 7.875 5.86206 7.875 6C5.29688 6 2.71875 6 0.0625 6C0.203042 5.64864 0.203042 5.64864 0.357666 5.47607C0.391031 5.43832 0.424395 5.40056 0.458771 5.36166C0.49429 5.32224 0.52981 5.28281 0.566406 5.24219C0.640618 5.15827 0.714755 5.07428 0.788818 4.99023C0.825063 4.94923 0.861308 4.90822 0.898651 4.86597C1.07881 4.65982 1.25006 4.44659 1.42236 4.23389C1.58141 4.03937 1.74351 3.84767 1.90625 3.65625C2.11706 3.40819 2.32574 3.15874 2.53125 2.90625C2.73676 2.65376 2.94546 2.40433 3.15625 2.15625C3.63554 1.59182 4.10132 1.0168 4.5625 0.4375Z" fill="white"/>
</svg>
