<svg width="13" height="16" viewBox="0 0 13 16" fill="none" xmlns="http://www.w3.org/2000/svg">
<path d="M6.48667 0.00243324C6.51723 0.00163027 6.54778 0.000827301 6.57925 0C6.78319 0.0223423 6.90329 0.144375 7.04238 0.286635C8.31076 1.54146 10.0155 2.18059 11.7499 2.2679C11.7734 2.26911 11.7969 2.27032 11.821 2.27157C11.9379 2.27749 12.0547 2.28265 12.1716 2.28665C12.6368 2.30558 12.6368 2.30558 12.8255 2.49504C12.8364 2.51271 12.8473 2.53037 12.8585 2.54857C12.8699 2.56624 12.8814 2.5839 12.8931 2.6021C12.9429 2.70318 12.9543 2.80143 12.9567 2.91384C12.9573 2.94 12.9579 2.96616 12.9585 2.99311C12.959 3.02166 12.9595 3.05021 12.96 3.07963C12.9606 3.11006 12.9613 3.14049 12.9619 3.17184C12.9639 3.27359 12.9657 3.37534 12.9674 3.4771C12.968 3.51234 12.9686 3.54759 12.9693 3.5839C13.0163 6.33325 13.0163 6.33325 12.9205 7.48513C12.9174 7.52224 12.9143 7.55935 12.9112 7.59759C12.6965 10.0782 11.8558 12.4713 9.96922 14.1055C9.91207 14.1521 9.85443 14.1981 9.7965 14.2437C9.7759 14.26 9.7553 14.2764 9.73407 14.2932C9.42544 14.5371 9.11406 14.7639 8.7752 14.96C8.73785 14.9818 8.73785 14.9818 8.69974 15.0041C6.86435 16.0713 6.86435 16.0713 6.27358 15.9416C6.20452 15.92 6.13739 15.8955 6.0699 15.8691C6.04442 15.8594 6.01895 15.8498 5.99271 15.8398C4.96929 15.4434 4.01763 14.9118 3.15808 14.2125C3.14185 14.1994 3.12563 14.1862 3.10891 14.1726C2.93409 14.0298 2.77134 13.8807 2.61739 13.7142C2.543 13.6365 2.46815 13.5594 2.39187 13.4837C2.17434 13.2652 1.98715 13.0315 1.80636 12.7799C1.7869 12.7529 1.7869 12.7529 1.76704 12.7254C1.57155 12.4534 1.39736 12.1715 1.23564 11.8766C1.22469 11.857 1.21374 11.8373 1.20246 11.817C0.490228 10.5268 0.196194 9.02326 0.0716618 7.55715C0.0689959 7.52589 0.0689959 7.52589 0.0662762 7.494C0.0539038 7.3458 0.0434007 7.19753 0.0341142 7.04909C0.0326506 7.02575 0.0311871 7.00242 0.0296792 6.97837C0.00055212 6.49275 -0.000752333 6.00731 0.000202116 5.5209C0.000322934 5.45602 0.000397365 5.39114 0.000462456 5.32625C0.00112449 4.75074 0.00432044 4.17525 0.0136701 3.5998C0.0147757 3.53146 0.0157975 3.46312 0.0167319 3.39478C0.0180789 3.30051 0.0198115 3.20625 0.0216765 3.11199C0.0220238 3.0847 0.0223711 3.05741 0.0227289 3.02929C0.0285903 2.77946 0.0658839 2.58938 0.244381 2.40842C0.39419 2.32934 0.509783 2.30228 0.679816 2.29552C0.700898 2.29453 0.72198 2.29354 0.7437 2.29251C0.788658 2.29041 0.833623 2.28847 0.878594 2.28668C0.997193 2.28185 1.11571 2.27538 1.23423 2.26887C1.25775 2.26759 1.28126 2.26631 1.30549 2.26499C1.61504 2.24744 1.92095 2.21088 2.2269 2.15926C2.2552 2.1545 2.2835 2.14974 2.31265 2.14484C3.62673 1.9138 4.86942 1.3093 5.84531 0.363161C6.21971 0.00661135 6.21971 0.00661137 6.48667 0.00243324ZM8.68509 5.52296C8.6727 5.53597 8.66031 5.54898 8.64754 5.56239C8.54841 5.66631 8.44904 5.76997 8.34927 5.87323C8.3303 5.89288 8.31133 5.91253 8.29179 5.93277C8.21616 6.00854 8.13726 6.07976 8.05687 6.15001C7.94908 6.25005 7.84895 6.35819 7.74727 6.46482C7.64395 6.5727 7.53806 6.67445 7.42619 6.7728C7.32511 6.86662 7.23108 6.96767 7.13577 7.06771C7.03642 7.17151 6.93397 7.26873 6.82648 7.36346C6.7418 7.44222 6.66234 7.52582 6.58242 7.60971C6.46825 7.72956 6.35267 7.84377 6.22818 7.95219C6.17106 8.00597 6.11793 8.06111 6.06462 8.11886C6.04725 8.13754 6.02988 8.15621 6.01198 8.17544C5.97718 8.21309 5.9427 8.25106 5.90857 8.28936C5.8601 8.34163 5.8601 8.34163 5.77139 8.41949C5.64978 8.40583 5.60341 8.34451 5.52545 8.25014C5.5018 8.22191 5.47814 8.19369 5.45376 8.16461C5.42972 8.13566 5.40567 8.10671 5.3809 8.07689C5.33597 8.02486 5.29092 7.97295 5.24573 7.92116C4.97538 7.60971 4.97538 7.60971 4.90815 7.53221C4.86197 7.47904 4.81574 7.42591 4.76946 7.37283C4.64078 7.22511 4.51379 7.07634 4.38964 6.92451C4.22108 7.05013 4.06689 7.18505 3.91654 7.33329C3.89714 7.3522 3.87774 7.37111 3.85775 7.3906C3.76325 7.48295 3.66975 7.57607 3.57861 7.672C3.72409 7.84034 3.87032 8.00788 4.01792 8.17422C4.12486 8.29479 4.23005 8.41667 4.33355 8.54042C4.41901 8.6409 4.50668 8.73927 4.59414 8.83787C4.68294 8.93801 4.77125 9.03858 4.85898 9.13973C4.88063 9.16466 4.90227 9.18959 4.92458 9.21528C4.97024 9.2682 5.01568 9.32135 5.06092 9.37466C5.27497 9.65093 5.27497 9.65093 5.56969 9.7995C5.79989 9.81058 5.92844 9.75846 6.10181 9.60302C6.15627 9.55028 6.20849 9.49632 6.25986 9.44036C6.31368 9.3833 6.36996 9.3317 6.42848 9.27988C6.51888 9.19917 6.60377 9.11489 6.68755 9.02683C6.78852 8.92071 6.89293 8.82206 7.00202 8.7251C7.07013 8.66208 7.13409 8.59588 7.1982 8.5285C7.29916 8.42238 7.40357 8.32373 7.51266 8.22678C7.58078 8.16376 7.64474 8.09755 7.70885 8.03017C7.80981 7.92405 7.91422 7.8254 8.02331 7.72845C8.11556 7.6431 8.20111 7.55117 8.2879 7.45994C8.36749 7.37858 8.45114 7.30345 8.53595 7.22806C8.59822 7.17068 8.65668 7.11063 8.71513 7.04909C8.79202 6.96812 8.87036 6.89141 8.95355 6.81745C9.09157 6.69442 9.21844 6.56071 9.34593 6.42618C9.37593 6.395 9.40595 6.36384 9.43604 6.33275C9.41896 6.3154 9.40189 6.29806 9.38429 6.28019C9.2528 6.14544 9.12684 6.00859 9.00647 5.86313C8.92367 5.76603 8.83457 5.67576 8.74516 5.58525C8.71543 5.55442 8.71543 5.55442 8.68509 5.52296Z" fill="#006363"/>
</svg>
